<svg width="652" height="206" viewBox="0 0 652 206" fill="none" xmlns="http://www.w3.org/2000/svg">
<path d="M50.2 111.1C57.5 111.1 65.8 114.2 70.2 120.3H70.7V112.7H90.6V175.3C90.6 196.1 73.5 205.9 56.5 205.9C40 205.9 23.9 196.5 23.7 178.9H43.4C43.9 186.8 49.6 190.4 56.2 190.4C62.8 190.4 69.5 186.4 69.5 176.3V166.7H69C64.5 172 57.1 174.9 50.2 174.9C33.5 174.9 22.4 159 22.4 142.7C22.5 126.6 33.6 111.1 50.2 111.1ZM247.4 112.6V148C247.4 153.3 251.5 157.5 256.7 157.5C261.8 157.5 266 153.2 266 148V112.6H287V147.7C287 165.7 274.7 176.6 256.6 176.6C238.9 176.6 226.2 166 226.2 147.7V112.6H247.4ZM589.5 111C607.9 111 622.5 124.7 622.5 143.9C622.5 145.7 622.3 147.2 622.2 148.2V148.5H578C578.8 156.5 583.8 161 589.9 161C593.3 161 596.8 159.6 599.8 156.3L600.2 155.8H620.6C615.3 169.9 602.4 176.5 589.5 176.5C573 176.5 556.5 165.6 556.5 143.8C556.5 124.7 571.1 111 589.5 111ZM134.1 110.4C153.2 110.4 168.9 123.9 168.9 143.4C168.9 162.9 153.3 176.4 134.1 176.4C115 176.4 99.6 163 99.6 143.4C99.6 123.8 115 110.4 134.1 110.4ZM437.9 74.7996V175H418V166.7H417.5C412.1 172.8 404.5 176.2 396.9 176.2C379.8 176.2 368.4 160.6 368.4 143.6C368.4 126.6 379.8 111.1 396.9 111.1C403.5 111.1 411.4 113.6 416.2 119.5H416.7V74.6996H437.9V74.7996ZM207.3 72.9996C211.2 72.9996 215.3 73.4996 218.7 74.2996V91.3996C217.1 90.9996 215.9 90.7996 214.5 90.7996C208.8 90.7996 203.9 93.0996 203.9 100.7V112.8H216.8V129.9H203.9V175H182.8V129.8H173.6V112.7H182.8V96.1996C182.8 80.6996 193.9 72.9996 207.3 72.9996ZM337 111C348.7 111 359.5 119.2 359.5 135.3V175H338.4V139.6C338.4 133.4 334.2 129.2 328.9 129.2C323.6 129.2 319.4 133.5 319.4 139.6V175H298.3V112.7H318.2V120.5H318.7C323.5 114.1 331 111 337 111ZM525.8 111C537 111 547.6 119.4 547.6 135.1V175.1H526.5V139C526.5 133.2 522.7 129.3 517.9 129.3C513 129.3 509.2 133.2 509.2 139V175H488V138.9C488 133.1 484.2 129.2 479.4 129.2C474.5 129.2 470.7 133.1 470.7 138.9V175H449.6V112.7H469.5V120.5H470C474.2 114.2 481.2 111 488 111C494.5 111 501.3 114.4 505.4 121.8H505.9C511.1 114.3 518.6 111 525.8 111ZM403 129.7C395.3 129.7 388.9 136 388.9 143.8C388.9 151.5 395.2 157.9 403 157.9C410.7 157.9 417.1 151.5 417.1 143.8C417.1 136 410.8 129.7 403 129.7ZM134.2 129.2C126.6 129.2 120.4 135.5 120.4 143.4C120.4 151.3 126.6 157.6 134.2 157.6C141.8 157.6 148 151.3 148 143.4C148 135.5 141.8 129.2 134.2 129.2ZM56.5 129.7C49.1 129.7 43.1 135.7 43.1 143.1C43.1 150.5 49.1 156.5 56.5 156.5C63.9 156.5 69.9 150.5 69.9 143.1C69.9 135.7 63.9 129.7 56.5 129.7ZM589.6 126.5C584 126.5 579.3 130.1 577.7 137.2H601.1C599.8 130.2 595.2 126.5 589.6 126.5ZM612.1 91.6996L616 103.1L619.9 91.6996H622.5V105.2H620.7V97.1996C620.7 96.8996 620.7 96.4996 620.7 95.7996C620.7 95.1996 620.7 94.4996 620.7 93.6996L616.8 105.1H615L611.1 93.6996V94.0996C611.1 94.3996 611.1 94.8996 611.1 95.5996C611.1 96.2996 611.1 96.7996 611.1 97.0996V105.1H609.3V91.5996H612.1V91.6996ZM607.8 91.6996V93.2996H603.2V105.2H601.3V93.2996H596.7V91.6996H607.8ZM322.5 59.3996C346.2 59.3996 366.9 72.2996 378 91.4996H266.9C278 72.2996 298.7 59.3996 322.5 59.3996ZM386.3 28.6996C390.4 24.5996 397.1 24.5996 401.3 28.6996C405.4 32.7996 405.4 39.4996 401.3 43.6996L385.4 59.5996C381.3 63.6996 374.6 63.6996 370.4 59.5996L370 59.1996C366.3 55.0996 366.4 48.5996 370.4 44.5996L386.3 28.6996ZM244.2 28.2996C248.3 24.5996 254.8 24.6996 258.8 28.6996L274.7 44.5996C278.8 48.6996 278.8 55.3996 274.7 59.5996C270.6 63.6996 263.9 63.6996 259.7 59.5996L243.8 43.6996C239.7 39.5996 239.7 32.8996 243.8 28.6996L244.2 28.2996ZM322.3 0.0996094H322.8C328.4 0.299609 332.9 4.9996 332.9 10.6996V33.1996C332.9 38.9996 328.1 43.7996 322.3 43.7996C316.5 43.7996 311.7 38.9996 311.7 33.1996V10.6996C311.8 4.7996 316.5 0.0996094 322.3 0.0996094Z" fill="white"/>
</svg>
