<svg width="100" height="100" viewBox="0 0 100 100" fill="none" xmlns="http://www.w3.org/2000/svg">
<g clip-path="url(#clip0_2_2064)">
<path d="M0 0H100V100H0V0Z" fill="#FF4040"/>
<path d="M73.9579 57.1999C71.9514 62.5089 68.2593 66.6113 62.9616 68.7832V57.1999L69.3027 51.4883L62.9616 45.858V37.8945C68.7409 37.4923 72.754 33.2291 72.754 28.0005C72.754 21.1632 66.2528 18.75 62.5607 18.75C61.7581 18.75 60.8747 18.75 59.5915 19.0718V19.3935C60.0726 19.3935 60.7945 19.3131 61.0357 19.3131C63.6046 19.3131 65.5309 20.5197 65.5309 22.8524C65.5309 24.6221 64.0857 26.3917 61.5178 26.3917C55.1766 26.3917 47.7123 21.2436 39.6058 21.2436C32.3822 21.2436 27.406 26.633 27.406 32.1029C27.406 37.4923 30.5362 39.262 33.8269 40.4686L33.9072 40.1468C32.8638 39.5033 32.1414 38.3772 32.1414 36.6075C32.1414 34.1943 34.3888 32.1833 37.1979 32.1833C44.0202 32.1833 55.0161 37.8945 61.8384 37.8945H62.4805V45.9384L56.1398 51.4883L62.4805 57.1999V68.944C59.8318 69.9088 57.1029 70.312 54.2937 70.312C43.6992 70.312 36.9571 63.8759 36.9571 53.178C36.9571 50.6039 37.2782 48.1103 38.0006 45.6971L43.2978 43.3644V67.0135L54.0529 62.2681V38.0554L38.2413 45.134C39.8466 40.4686 43.1373 37.0901 47.0702 35.1596L46.9899 34.9183C36.3953 37.251 26.1218 45.2949 26.1218 57.3608C26.1218 71.2768 37.84 80.9295 51.485 80.9295C65.9317 80.9295 74.1184 71.2768 74.1987 57.1999H73.9579Z" fill="#B42F2F"/>
<path d="M21.2827 54.3578C21.1645 54.5648 21.0167 54.7421 20.8689 54.8899C20.6325 54.1804 20.4847 53.4118 20.3665 52.6728C20.1004 51.2834 19.9527 49.8644 19.9527 48.4454C19.9231 47.0856 20.0413 45.6962 20.5734 44.4546C20.8985 43.7451 21.3419 43.0947 21.9035 42.5626C21.9035 45.371 21.9035 48.1794 21.9035 50.9878C21.9035 51.579 21.9035 52.1407 21.8148 52.7319C21.7261 53.2936 21.5783 53.8553 21.2827 54.3578ZM32.6329 55.0377C32.6033 56.2793 32.1895 57.5505 31.421 58.5261C30.6525 59.5312 29.5293 60.2407 28.3174 60.5067C28.2583 60.5067 28.1992 60.5363 28.1401 60.5363C28.1401 59.3242 28.1401 58.1418 28.1401 56.9297L32.6329 54.6534C32.6329 54.7717 32.6329 54.9195 32.6329 55.0377ZM28.1401 53.8257L31.9235 51.9042C32.219 52.4954 32.426 53.1162 32.5442 53.737L28.1401 55.9837V53.8257ZM28.1401 52.8797C28.1401 51.4312 28.1401 49.9531 28.1401 48.5045C29.2928 48.948 30.3274 49.687 31.0959 50.633C31.2436 50.8104 31.3619 50.9878 31.4801 51.1651L28.1401 52.8797ZM27.2829 60.625C26.2484 60.625 25.2139 60.3293 24.2976 59.7677C23.1153 59.0582 22.199 57.9348 21.5783 56.6932C21.5192 56.575 21.4305 56.4272 21.3714 56.2793C21.667 56.1907 21.933 56.102 22.2286 55.9837C23.0562 55.6585 23.8247 55.1856 24.4454 54.5056C24.9183 54.0326 25.273 53.471 25.4799 52.8206C25.6868 52.1998 25.7164 51.5199 25.7164 50.8399V50.3669L27.2829 48.8002C27.2829 52.7319 27.2829 56.6637 27.2829 60.625ZM25.7164 40.9367C25.7755 40.9071 25.8642 40.9071 25.9233 40.8776C25.9233 40.8776 25.9528 40.8776 25.9824 40.8776C26.7213 41.4392 27.5194 41.9418 28.3174 42.4148C29.2042 42.9469 30.1205 43.4199 31.0663 43.8633L25.7164 49.1549V46.7899V40.9367ZM30.7412 45.371L35.6477 40.5228L35.0566 39.902L34.0812 40.8776C33.3127 40.6115 32.6033 40.2863 31.8939 39.9316C30.8298 39.3699 29.8249 38.7195 28.879 37.9805L25.9824 40.2863C23.1744 40.6115 20.4551 42.0009 18.593 44.1589C16.9378 46.0805 15.9624 48.5341 15.8737 51.0173C15.785 53.2345 16.4057 55.4516 17.6176 57.2549C18.859 59.0877 20.6916 60.4771 22.7902 61.1571C24.4454 61.7188 26.2484 61.837 27.9628 61.5414C29.7067 61.2458 31.3619 60.5067 32.7511 59.4425C34.2881 58.2896 35.4999 56.6637 36.0615 54.8308C36.6822 52.8206 36.4753 50.5148 35.3817 48.7115C34.3768 47.0264 32.6624 45.7848 30.7412 45.371Z" fill="white"/>
<path d="M38.9762 57.7278L42.996 61.0978L46.7203 58.1712C46.7498 58.3781 46.7794 58.5555 46.8089 58.7624C46.9272 59.3832 47.2227 60.004 47.6957 60.4475C48.0503 60.7727 48.5233 60.9796 48.9962 61.0387L52.5431 58.6146L51.9815 57.8756L50.8879 58.7624C50.6514 58.6146 50.4741 58.3781 50.3263 58.1121C50.1194 57.6982 50.0898 57.2252 50.0898 56.7522V55.5106V48.4453L51.3608 47.4698L50.9174 46.9081L49.8829 47.6176L47.9321 45.903L45.1537 48.4749L46.6907 49.8347V55.8949V56.8114C46.6907 56.9887 46.6907 57.1661 46.6907 57.3435L45.2719 58.3781L43.4394 56.6044V49.5095C43.4394 49.1252 43.4098 48.7705 43.3211 48.4157C43.2325 48.0314 43.0847 47.7063 42.8778 47.3811C42.6118 46.9968 42.2866 46.6716 41.9024 46.376C41.6659 46.1986 41.3703 46.0804 41.1043 45.9621L37.2914 48.4157L37.587 48.8296C37.7939 48.6818 38.0008 48.534 38.2668 48.4453C38.3555 48.4157 38.4441 48.3862 38.5328 48.3862C38.7397 48.3271 38.9466 48.3566 39.124 48.4453C39.3309 48.534 39.5082 48.6522 39.6264 48.8296C39.7447 49.007 39.8038 49.2139 39.8629 49.4209C39.8925 49.6278 39.8925 49.8347 39.8925 50.0417V56.9592L38.9762 57.7278Z" fill="white"/>
<path d="M61.015 57.6099L59.7441 58.4377L58.7391 57.4621V48.5344L56.4927 45.8443L52.532 48.5344L52.9458 49.0961L54.069 48.3866L55.074 49.6578V57.4621L53.2118 58.7333L53.6552 59.295L54.6306 58.5855L57.4681 61.1278L61.7244 58.1716L61.015 57.6099ZM54.1281 41.8534L56.6405 44.7209L59.478 42.2377L56.9361 39.3702L54.1281 41.8534Z" fill="white"/>
<path d="M67.6521 57.4616V38.335H67.0905L62.2726 41.7346V42.1485C62.5091 42.2372 62.716 42.3259 62.9524 42.4441C63.1593 42.5328 63.3367 42.6806 63.4845 42.858C63.5436 42.9762 63.6027 43.124 63.6322 43.2718C63.6914 43.4197 63.6913 43.5675 63.6913 43.7153V57.166L61.711 58.4371L62.1248 59.0284L63.248 58.3189L66.3811 61.009L70.0462 58.4371L69.6324 57.8755L68.7752 58.585L67.6521 57.4616Z" fill="white"/>
<path d="M75.6266 46.938L78.7597 49.7759V58.6741L75.6266 56.4865V46.938ZM75.3902 46.7311L71.8137 48.9482V58.0533L76.07 60.9504L82.5431 57.1369V48.7708L83.8141 47.7362L83.3116 47.0858L82.218 47.9727L72.0206 39.0154V44.307L72.6118 44.2183L75.3902 46.7311Z" fill="white"/>
</g>
<defs>
<clipPath id="clip0_2_2064">
<rect width="100" height="100" rx="50" fill="white"/>
</clipPath>
</defs>
</svg>
