<svg width="60" height="61" viewBox="0 0 60 61" fill="none" xmlns="http://www.w3.org/2000/svg">
<g clip-path="url(#clip0_41_82)">
<rect y="0.5" width="60" height="60" rx="4" fill="white"/>
<rect y="30.5" width="30" height="30" fill="#1E1E1E"/>
<rect x="30" y="0.5" width="30" height="30" fill="#1E1E1E"/>
<rect x="30" y="30.5" width="30" height="30" fill="white"/>
<rect y="0.5" width="30" height="30" fill="white"/>
<g clip-path="url(#clip1_41_82)">
<path d="M12 12.5H48V48.5H12V12.5Z" fill="#FF4040"/>
<path d="M38.6249 33.092C37.9025 35.0032 36.5734 36.4801 34.6662 37.2619V33.092L36.949 31.0358L34.6662 29.0089V26.142C36.7467 25.9972 38.1915 24.4625 38.1915 22.5802C38.1915 20.1187 35.851 19.25 34.5219 19.25C34.2329 19.25 33.9149 19.25 33.453 19.3658V19.4817C33.6262 19.4817 33.886 19.4527 33.9729 19.4527C34.8977 19.4527 35.5911 19.8871 35.5911 20.7269C35.5911 21.3639 35.0709 22.001 34.1464 22.001C31.8636 22.001 29.1764 20.1477 26.2581 20.1477C23.6576 20.1477 21.8662 22.0879 21.8662 24.057C21.8662 25.9972 22.9931 26.6343 24.1777 27.0687L24.2066 26.9529C23.831 26.7212 23.5709 26.3158 23.5709 25.6787C23.5709 24.81 24.38 24.086 25.3913 24.086C27.8473 24.086 31.8058 26.142 34.2618 26.142H34.493V29.0378L32.2103 31.0358L34.493 33.092V37.3199C33.5395 37.6672 32.5571 37.8123 31.5458 37.8123C27.7317 37.8123 25.3046 35.4953 25.3046 31.6441C25.3046 30.7174 25.4202 29.8197 25.6802 28.951L27.5873 28.1112V36.6249L31.4591 34.9165V26.1999L25.7669 28.7483C26.3448 27.0687 27.5295 25.8524 28.9453 25.1575L28.9164 25.0706C25.1023 25.9104 21.4039 28.8062 21.4039 33.1499C21.4039 38.1596 25.6224 41.6346 30.5346 41.6346C35.7354 41.6346 38.6827 38.1596 38.7116 33.092H38.6249Z" fill="#B42F2F"/>
<path d="M19.6617 32.0686C19.6192 32.1431 19.566 32.2069 19.5128 32.2601C19.4276 32.0047 19.3744 31.728 19.3319 31.462C19.2361 30.9618 19.1829 30.4509 19.1829 29.9401C19.1723 29.4506 19.2148 28.9504 19.4064 28.5034C19.5234 28.248 19.683 28.0138 19.8852 27.8223C19.8852 28.8333 19.8852 29.8443 19.8852 30.8553C19.8852 31.0682 19.8852 31.2704 19.8533 31.4832C19.8214 31.6854 19.7681 31.8876 19.6617 32.0686ZM23.7478 32.3133C23.7371 32.7603 23.5882 33.2179 23.3115 33.5691C23.0349 33.931 22.6305 34.1864 22.1942 34.2822C22.173 34.2822 22.1517 34.2928 22.1304 34.2928C22.1304 33.8565 22.1304 33.4308 22.1304 32.9944L23.7478 32.175C23.7478 32.2176 23.7478 32.2708 23.7478 32.3133ZM22.1304 31.877L23.4924 31.1853C23.5988 31.3981 23.6733 31.6216 23.7159 31.8451L22.1304 32.6539V31.877ZM22.1304 31.5364C22.1304 31.015 22.1304 30.4829 22.1304 29.9614C22.5454 30.121 22.9178 30.3871 23.1945 30.7276C23.2477 30.7915 23.2902 30.8553 23.3328 30.9192L22.1304 31.5364ZM21.8218 34.3247C21.4494 34.3247 21.077 34.2183 20.7471 34.0161C20.3215 33.7607 19.9916 33.3563 19.7681 32.9093C19.7469 32.8667 19.7149 32.8135 19.6937 32.7603C19.8001 32.7284 19.8958 32.6965 20.0022 32.6539C20.3002 32.5368 20.5768 32.3665 20.8003 32.1218C20.9706 31.9515 21.0982 31.7493 21.1727 31.5152C21.2472 31.2917 21.2579 31.0469 21.2579 30.8021V30.6319L21.8218 30.0678C21.8218 31.4832 21.8218 32.8987 21.8218 34.3247ZM21.2579 27.237C21.2791 27.2263 21.3111 27.2263 21.3323 27.2157C21.3323 27.2157 21.343 27.2157 21.3536 27.2157C21.6196 27.4179 21.9069 27.5988 22.1942 27.7691C22.5135 27.9606 22.8433 28.1309 23.1838 28.2905L21.2579 30.1955V29.3441V27.237ZM23.0668 28.8333L24.8331 27.088L24.6203 26.8645L24.2692 27.2157C23.9925 27.1199 23.7371 27.0028 23.4818 26.8751C23.0987 26.6729 22.7369 26.4388 22.3964 26.1727L21.3536 27.0028C20.3427 27.1199 19.3638 27.6201 18.6934 28.397C18.0976 29.0887 17.7464 29.972 17.7145 30.866C17.6826 31.6642 17.906 32.4623 18.3423 33.1115C18.7892 33.7713 19.4489 34.2715 20.2044 34.5163C20.8003 34.7185 21.4494 34.7611 22.0665 34.6546C22.6943 34.5482 23.2902 34.2822 23.7903 33.899C24.3437 33.484 24.7799 32.8987 24.9821 32.2388C25.2056 31.5152 25.1311 30.6851 24.7374 30.0359C24.3756 29.4293 23.7584 28.9823 23.0668 28.8333Z" fill="white"/>
<path d="M26.0314 33.2823L27.4785 34.4955L28.8193 33.4419C28.8299 33.5164 28.8405 33.5802 28.8512 33.6547C28.8937 33.8782 29.0001 34.1017 29.1704 34.2614C29.2981 34.3784 29.4683 34.4529 29.6386 34.4742L30.9155 33.6015L30.7133 33.3355L30.3196 33.6547C30.2345 33.6015 30.1706 33.5164 30.1174 33.4206C30.0429 33.2716 30.0323 33.1013 30.0323 32.9311V32.4841V29.9406L30.4898 29.5894L30.3302 29.3872L29.9578 29.6426L29.2555 29.0253L28.2553 29.9512L28.8086 30.4408V32.6224V32.9523C28.8086 33.0162 28.8086 33.0801 28.8086 33.1439L28.2979 33.5164L27.6381 32.8779V30.3237C27.6381 30.1853 27.6275 30.0576 27.5956 29.9299C27.5637 29.7916 27.5104 29.6745 27.436 29.5575C27.3402 29.4191 27.2231 29.302 27.0848 29.1956C26.9997 29.1318 26.8933 29.0892 26.7975 29.0466L25.4249 29.9299L25.5313 30.0789C25.6058 30.0257 25.6802 29.9725 25.776 29.9406C25.8079 29.9299 25.8399 29.9193 25.8718 29.9193C25.9463 29.898 26.0207 29.9086 26.0846 29.9406C26.1591 29.9725 26.2229 30.0151 26.2655 30.0789C26.308 30.1428 26.3293 30.2173 26.3506 30.2918C26.3612 30.3663 26.3612 30.4408 26.3612 30.5153V33.0056L26.0314 33.2823Z" fill="white"/>
<path d="M33.9654 33.2397L33.5078 33.5377L33.1461 33.1865V29.9725L32.3374 29.004L30.9115 29.9725L31.0605 30.1747L31.4648 29.9193L31.8266 30.3769V33.1865L31.1562 33.6441L31.3158 33.8463L31.667 33.5909L32.6885 34.5061L34.2208 33.4419L33.9654 33.2397ZM31.4861 27.5673L32.3906 28.5996L33.4121 27.7057L32.497 26.6734L31.4861 27.5673Z" fill="white"/>
<path d="M36.3547 33.1862V26.3006H36.1526L34.4181 27.5245V27.6735C34.5032 27.7054 34.5777 27.7373 34.6629 27.7799C34.7373 27.8118 34.8012 27.865 34.8544 27.9289C34.8757 27.9714 34.8969 28.0247 34.9076 28.0779C34.9289 28.1311 34.9289 28.1843 34.9289 28.2375V33.0798L34.2159 33.5374L34.3649 33.7502L34.7693 33.4948L35.8972 34.4633L37.2166 33.5374L37.0677 33.3352L36.7591 33.5906L36.3547 33.1862Z" fill="white"/>
<path d="M39.2256 29.3977L40.3535 30.4193V33.6227L39.2256 32.8351V29.3977ZM39.1405 29.3232L37.853 30.1214V33.3992L39.3852 34.4421L41.7155 33.0693V30.0575L42.1731 29.685L41.9922 29.4509L41.5985 29.7702L37.9275 26.5455V28.4505L38.1403 28.4186L39.1405 29.3232Z" fill="white"/>
</g>
</g>
<rect x="1.5" y="2" width="57" height="57" rx="2.5" stroke="#1E1E1E" stroke-width="3"/>
<defs>
<clipPath id="clip0_41_82">
<rect y="0.5" width="60" height="60" rx="4" fill="white"/>
</clipPath>
<clipPath id="clip1_41_82">
<rect x="12" y="12.5" width="36" height="36" rx="18" fill="white"/>
</clipPath>
</defs>
</svg>
